<svg width="20" height="20" viewBox="0 0 20 20" fill="none" xmlns="http://www.w3.org/2000/svg">
<path d="M0.00195312 10.0614C0.00311667 15.0111 3.58035 19.2255 8.43895 20.0012V12.9692H5.90195V10.0614H8.44195V7.84786C8.3284 6.79898 8.68447 5.75363 9.41359 4.99534C10.1427 4.23703 11.1693 3.84437 12.215 3.92385C12.9655 3.93604 13.7141 4.0033 14.455 4.12508V6.59922H13.191C12.7558 6.54187 12.3183 6.68647 12.0017 6.99229C11.6851 7.2981 11.5237 7.73203 11.563 8.17184V10.0614H14.334L13.891 12.9702H11.563V20.0012C16.8174 19.1657 20.502 14.3373 19.9475 9.01407C19.3929 3.69079 14.7932 -0.263846 9.48078 0.0151105C4.16831 0.294067 0.0027976 4.70896 0.00195312 10.0614Z" fill="#F5F8FB"/>
</svg>
