<svg width="24" height="24" viewBox="0 0 24 24" fill="none" xmlns="http://www.w3.org/2000/svg">
<path fill-rule="evenodd" clip-rule="evenodd" d="M8.19471 2.82461C9.17904 2.7793 9.49289 2.76923 12.0003 2.76923C14.5077 2.76923 14.8216 2.78014 15.8051 2.82461C16.7886 2.86909 17.4599 3.02601 18.0473 3.25342C18.6624 3.48587 19.2204 3.84923 19.682 4.31916C20.1519 4.77986 20.5144 5.33706 20.746 5.953C20.9743 6.54042 21.1304 7.21174 21.1757 8.19356C21.221 9.17958 21.2311 9.49342 21.2311 12C21.2311 14.5074 21.2202 14.8213 21.1757 15.8056C21.1312 16.7874 20.9743 17.4587 20.746 18.0462C20.5144 18.6622 20.1513 19.2203 19.682 19.6817C19.2204 20.1516 18.6624 20.5141 18.0473 20.7457C17.4599 20.974 16.7886 21.1301 15.8067 21.1754C14.8216 21.2207 14.5077 21.2308 12.0003 21.2308C9.49289 21.2308 9.17904 21.2199 8.19471 21.1754C7.21289 21.1309 6.54156 20.974 5.95415 20.7457C5.33814 20.5141 4.78001 20.151 4.31862 19.6817C3.84901 19.2207 3.4856 18.6628 3.25373 18.047C3.02631 17.4596 2.87023 16.7882 2.82492 15.8064C2.7796 14.8204 2.76953 14.5066 2.76953 12C2.76953 9.49258 2.78044 9.17874 2.82492 8.19524C2.86939 7.21174 3.02631 6.54042 3.25373 5.953C3.48594 5.33713 3.84963 4.77928 4.31946 4.31832C4.78019 3.84881 5.33776 3.4854 5.95331 3.25342C6.54072 3.02601 7.21205 2.86993 8.19387 2.82461H8.19471ZM15.7304 4.48615C14.7569 4.44167 14.4649 4.43244 12.0003 4.43244C9.53569 4.43244 9.24366 4.44167 8.27023 4.48615C7.36981 4.52727 6.88142 4.67748 6.55583 4.80419C6.12534 4.97202 5.81736 5.1709 5.49429 5.49398C5.18803 5.79193 4.95234 6.15464 4.8045 6.55552C4.67778 6.88111 4.52757 7.36951 4.48645 8.26993C4.44198 9.24335 4.43275 9.53538 4.43275 12C4.43275 14.4646 4.44198 14.7566 4.48645 15.7301C4.52757 16.6305 4.67778 17.1189 4.8045 17.4445C4.95219 17.8448 5.18799 18.2081 5.49429 18.506C5.79219 18.8123 6.15555 19.0481 6.55583 19.1958C6.88142 19.3225 7.36981 19.4727 8.27023 19.5138C9.24366 19.5583 9.53485 19.5676 12.0003 19.5676C14.4658 19.5676 14.7569 19.5583 15.7304 19.5138C16.6308 19.4727 17.1192 19.3225 17.4448 19.1958C17.8753 19.028 18.1832 18.8291 18.5063 18.506C18.8126 18.2081 19.0484 17.8448 19.1961 17.4445C19.3228 17.1189 19.473 16.6305 19.5142 15.7301C19.5586 14.7566 19.5679 14.4646 19.5679 12C19.5679 9.53538 19.5586 9.24335 19.5142 8.26993C19.473 7.36951 19.3228 6.88111 19.1961 6.55552C19.0283 6.12503 18.8294 5.81706 18.5063 5.49398C18.2084 5.18775 17.8456 4.95206 17.4448 4.80419C17.1192 4.67748 16.6308 4.52727 15.7304 4.48615ZM10.8213 14.8456C11.4797 15.1197 12.2129 15.1567 12.8956 14.9503C13.5783 14.7438 14.1682 14.3068 14.5645 13.7138C14.9607 13.1208 15.1388 12.4086 15.0683 11.6988C14.9978 10.9891 14.6831 10.3258 14.1779 9.82237C13.8559 9.50054 13.4665 9.2541 13.0378 9.10082C12.6091 8.94753 12.1517 8.89121 11.6986 8.9359C11.2455 8.98059 10.808 9.12518 10.4175 9.35927C10.027 9.59335 9.69323 9.91111 9.44028 10.2897C9.18732 10.6682 9.02144 11.0981 8.95458 11.5485C8.88772 11.9988 8.92155 12.4584 9.05362 12.8941C9.1857 13.3298 9.41273 13.7309 9.71839 14.0683C10.024 14.4057 10.4007 14.6712 10.8213 14.8456ZM8.64534 8.64503C9.08592 8.20445 9.60896 7.85496 10.1846 7.61652C10.7603 7.37808 11.3772 7.25536 12.0003 7.25536C12.6234 7.25536 13.2404 7.37808 13.816 7.61652C14.3916 7.85496 14.9147 8.20445 15.3553 8.64503C15.7958 9.08561 16.1453 9.60866 16.3838 10.1843C16.6222 10.7599 16.7449 11.3769 16.7449 12C16.7449 12.6231 16.6222 13.24 16.3838 13.8157C16.1453 14.3913 15.7958 14.9144 15.3553 15.355C14.4655 16.2448 13.2587 16.7446 12.0003 16.7446C10.7419 16.7446 9.53513 16.2448 8.64534 15.355C7.75554 14.4652 7.25566 13.2584 7.25566 12C7.25566 10.7416 7.75554 9.53482 8.64534 8.64503ZM17.7972 7.96195C17.9064 7.85896 17.9938 7.73511 18.0543 7.59774C18.1147 7.46036 18.147 7.31225 18.1492 7.16218C18.1514 7.0121 18.1234 6.86311 18.067 6.72403C18.0106 6.58495 17.9268 6.45861 17.8207 6.35248C17.7146 6.24635 17.5882 6.16259 17.4491 6.10616C17.3101 6.04974 17.1611 6.02179 17.011 6.02398C16.8609 6.02617 16.7128 6.05845 16.5754 6.1189C16.4381 6.17936 16.3142 6.26676 16.2112 6.37594C16.0109 6.58827 15.9013 6.87031 15.9055 7.16218C15.9098 7.45404 16.0276 7.73276 16.234 7.93917C16.4404 8.14557 16.7191 8.2634 17.011 8.26766C17.3029 8.27191 17.5849 8.16225 17.7972 7.96195Z" fill="#F5F8FB"/>
</svg>
