<svg width="20" height="20" viewBox="0 0 20 20" fill="none" xmlns="http://www.w3.org/2000/svg">
<path d="M17.8645 0.769226H2.13251C1.37891 0.769226 0.769531 1.36418 0.769531 2.09976V17.8966C0.769531 18.6322 1.37891 19.2308 2.13251 19.2308H17.8645C18.6181 19.2308 19.2311 18.6322 19.2311 17.9002V2.09976C19.2311 1.36418 18.6181 0.769226 17.8645 0.769226ZM6.2467 16.5012H3.50631V7.6887H6.2467V16.5012ZM4.8765 6.48798C3.9967 6.48798 3.28636 5.77764 3.28636 4.90144C3.28636 4.02524 3.9967 3.3149 4.8765 3.3149C5.75271 3.3149 6.46304 4.02524 6.46304 4.90144C6.46304 5.77403 5.75271 6.48798 4.8765 6.48798ZM16.5015 16.5012H13.7647V12.2175C13.7647 11.1971 13.7467 9.88101 12.3404 9.88101C10.9162 9.88101 10.6998 10.9952 10.6998 12.1454V16.5012H7.96665V7.6887H10.5916V8.89303H10.6277C10.9919 8.20072 11.8861 7.46875 13.2167 7.46875C15.9895 7.46875 16.5015 9.29327 16.5015 11.6659V16.5012Z" fill="#F5F8FB"/>
</svg>
