<svg xmlns="http://www.w3.org/2000/svg" style="display: none;">
    <symbol id="discord-icon" viewBox="0 0 22 16" fill="none" xmlns="http://www.w3.org/2000/svg">
        <path d="M19.2752 2.02667C17.7615 0.746667 15.945 0.106667 14.0275 0L13.7248 0.32C15.4404 0.746667 16.9541 1.6 18.367 2.77333C16.6514 1.81333 14.7339 1.17333 12.7156 0.96C12.1101 0.853333 11.6055 0.853333 11 0.853333C10.3945 0.853333 9.88991 0.853333 9.2844 0.96C7.26606 1.17333 5.34862 1.81333 3.63303 2.77333C5.04587 1.6 6.55963 0.746667 8.27523 0.32L7.97248 0C6.05505 0.106667 4.23853 0.746667 2.72477 2.02667C1.00917 5.44 0.100917 9.28 0 13.2267C1.51376 14.9333 3.63303 16 5.85321 16C5.85321 16 6.55963 15.1467 7.06422 14.4C5.75229 14.08 4.54128 13.3333 3.73395 12.16C4.44037 12.5867 5.14679 13.0133 5.85321 13.3333C6.76147 13.76 7.66972 13.9733 8.57798 14.1867C9.38532 14.2933 10.1927 14.4 11 14.4C11.8073 14.4 12.6147 14.2933 13.422 14.1867C14.3303 13.9733 15.2385 13.76 16.1468 13.3333C16.8532 13.0133 17.5596 12.5867 18.2661 12.16C17.4587 13.3333 16.2477 14.08 14.9358 14.4C15.4404 15.1467 16.1468 16 16.1468 16C18.367 16 20.4862 14.9333 22 13.2267C21.8991 9.28 20.9908 5.44 19.2752 2.02667ZM7.66972 11.3067C6.66055 11.3067 5.75229 10.3467 5.75229 9.17333C5.75229 8 6.66055 7.04 7.66972 7.04C8.6789 7.04 9.58716 8 9.58716 9.17333C9.58716 10.3467 8.6789 11.3067 7.66972 11.3067ZM14.3303 11.3067C13.3211 11.3067 12.4128 10.3467 12.4128 9.17333C12.4128 8 13.3211 7.04 14.3303 7.04C15.3394 7.04 16.2477 8 16.2477 9.17333C16.2477 10.3467 15.3394 11.3067 14.3303 11.3067Z" fill="#F5F8FB"/>
    </symbol>
    <symbol id="facebook-icon" viewBox="0 0 20 20" fill="none" xmlns="http://www.w3.org/2000/svg">
        <path d="M0.00195312 10.0614C0.00311667 15.0111 3.58035 19.2255 8.43895 20.0012V12.9692H5.90195V10.0614H8.44195V7.84786C8.3284 6.79898 8.68447 5.75363 9.41359 4.99534C10.1427 4.23703 11.1693 3.84437 12.215 3.92385C12.9655 3.93604 13.7141 4.0033 14.455 4.12508V6.59922H13.191C12.7558 6.54187 12.3183 6.68647 12.0017 6.99229C11.6851 7.2981 11.5237 7.73203 11.563 8.17184V10.0614H14.334L13.891 12.9702H11.563V20.0012C16.8174 19.1657 20.502 14.3373 19.9475 9.01407C19.3929 3.69079 14.7932 -0.263846 9.48078 0.0151105C4.16831 0.294067 0.0027976 4.70896 0.00195312 10.0614Z" fill="#F5F8FB"/>
    </symbol>
    <symbol id="tik-tok-icon" viewBox="0 0 20 20" fill="none" xmlns="http://www.w3.org/2000/svg">
        <path d="M17.0333 0.769226H2.96733C1.75547 0.769226 0.769531 1.75516 0.769531 2.96703V17.033C0.769531 18.2448 1.75547 19.2308 2.96733 19.2308H17.0333C18.2451 19.2308 19.2311 18.2448 19.2311 17.033V2.96703C19.2311 1.75516 18.2451 0.769226 17.0333 0.769226ZM15.2777 8.82329C15.1779 8.83252 15.0768 8.83868 14.9744 8.83868C13.8214 8.83868 12.8082 8.24571 12.2188 7.34945C12.2188 9.70065 12.2188 12.3758 12.2188 12.4207C12.2188 14.4905 10.5405 16.1688 8.47063 16.1688C6.40074 16.1688 4.7225 14.4905 4.7225 12.4207C4.7225 10.3508 6.40074 8.67252 8.47063 8.67252C8.54887 8.67252 8.62536 8.67956 8.70228 8.68439V10.5314C8.62536 10.5222 8.54975 10.5081 8.47063 10.5081C7.41393 10.5081 6.55766 11.3644 6.55766 12.4211C6.55766 13.4778 7.41393 14.3341 8.47063 14.3341C9.52733 14.3341 10.4605 13.5015 10.4605 12.4448C10.4605 12.4031 10.479 3.83208 10.479 3.83208H12.2443C12.4104 5.41054 13.6847 6.65626 15.2777 6.77054V8.82329Z" fill="#F5F8FB"/>
    </symbol>
    <symbol id="youtube-icon" viewBox="0 0 24 17" fill="none" xmlns="http://www.w3.org/2000/svg">
        <path d="M23.2523 2.92188C23.0312 1.75354 21.9776 0.90271 20.7549 0.637085C18.9253 0.265625 15.5391 0 11.8755 0C8.21396 0 4.77359 0.265625 2.94177 0.637085C1.72127 0.90271 0.665529 1.69959 0.444408 2.92188C0.22112 4.25 0 6.10938 0 8.5C0 10.8906 0.22112 12.75 0.498605 14.0781C0.721892 15.2465 1.77547 16.0973 2.99596 16.3629C4.93835 16.7344 8.26816 17 11.9318 17C15.5955 17 18.9253 16.7344 20.8677 16.3629C22.0882 16.0973 23.1417 15.3004 23.365 14.0781C23.5862 12.75 23.8636 10.8367 23.92 8.5C23.8073 6.10938 23.5298 4.25 23.2523 2.92188ZM8.87949 12.2188V4.78125L15.6497 8.5L8.87949 12.2188Z" fill="#F5F8FB"/>
    </symbol>
    <symbol id="twitter-icon" viewBox="0 0 20 18" fill="none" xmlns="http://www.w3.org/2000/svg">
        <path d="M17.6441 3.17993C18.5012 2.64375 19.1425 1.79948 19.4483 0.804742C18.6429 1.3048 17.7618 1.65705 16.8429 1.84626C15.569 0.436085 13.5505 0.0929117 11.9155 1.0085C10.2804 1.92409 9.4335 3.87177 9.84798 5.76323C6.54901 5.58991 3.47544 3.95924 1.3921 1.27698C0.304847 3.23938 0.860458 5.748 2.66182 7.00985C2.01043 6.98794 1.37348 6.80338 0.804092 6.47158C0.804092 6.48959 0.804092 6.5076 0.804092 6.52561C0.804469 8.56978 2.18125 10.3306 4.09599 10.7357C3.49179 10.9077 2.85802 10.9331 2.24304 10.8098C2.78153 12.5579 4.32121 13.7555 6.07611 13.7912C4.62265 14.985 2.82769 15.6323 0.980017 15.6292C0.65252 15.6297 0.32528 15.6099 0 15.5701C1.87627 16.8318 4.06002 17.5015 6.29028 17.4991C9.39311 17.5214 12.375 16.2414 14.569 13.9453C16.763 11.6493 17.986 8.52886 17.9644 5.28198C17.9644 5.09589 17.9603 4.9108 17.952 4.72671C18.7556 4.119 19.4491 3.36617 20 2.50359C19.2514 2.85083 18.4573 3.0788 17.6441 3.17993Z" fill="#F5F8FB"/>
    </symbol>
    <symbol id="telegram-icon" viewBox="0 0 24 20" fill="none" xmlns="http://www.w3.org/2000/svg">
        <path d="M23.5468 0.422732C23.1374 0.114515 22.4944 0.0704154 21.8295 0.307393H21.8285C21.1292 0.556486 2.03537 7.82768 1.25808 8.12475C1.11671 8.16836 -0.118008 8.57738 0.00917513 9.48846C0.122712 10.3099 1.11507 10.6501 1.23625 10.6893L6.0905 12.165C6.41255 13.1168 7.59977 16.6283 7.86233 17.3785C8.02608 17.8462 8.293 18.4607 8.7608 18.5871C9.17128 18.7277 9.57957 18.5993 9.84376 18.4151L12.8116 15.9712L17.6025 19.2884L17.7166 19.349C18.0419 19.4769 18.3536 19.5409 18.6511 19.5409C18.8809 19.5409 19.1014 19.5026 19.3121 19.426C20.0299 19.1643 20.317 18.5571 20.347 18.4883L23.9256 1.97399C24.144 1.09199 23.8405 0.643232 23.5468 0.422732ZM10.3716 12.7553L8.73405 16.6322L7.0965 11.786L19.6511 3.54754L10.3716 12.7553Z" fill="#F5F8FB"/>
    </symbol>
    <symbol id="logo-blue" viewBox="0 0 188 42" fill="none" xmlns="http://www.w3.org/2000/svg">
        <g clip-path="url(#clip0_4453_7151)">
        <path d="M35.6379 23.0675V29.0071C35.6379 29.0755 35.6366 29.144 35.6325 29.2124C35.6312 29.2259 35.6312 29.2406 35.6299 29.254C35.6272 29.2943 35.6245 29.3346 35.6205 29.3762C35.6164 29.4165 35.6124 29.4567 35.607 29.497C35.603 29.5359 35.5963 29.5748 35.5909 29.6124C35.5815 29.6702 35.5721 29.7265 35.5601 29.7842C35.5534 29.8205 35.5453 29.8554 35.5372 29.8916C35.5292 29.9225 35.5211 29.9547 35.5131 29.9869C35.5064 30.0165 35.4983 30.0446 35.4889 30.0742C35.4527 30.2044 35.4084 30.3332 35.3574 30.4594C35.3466 30.4863 35.3359 30.5144 35.3238 30.5413C35.293 30.6151 35.2594 30.6876 35.2232 30.7587C35.2057 30.795 35.1869 30.8299 35.1681 30.8648L35.1668 30.8634L28.4473 27.1238L17.9238 21.2661L25.8379 17.6232L35.4956 22.9896L35.6379 23.0675Z" fill="url(#paint0_linear_4453_7151)"/>
        <path d="M35.5194 11.9829L33.471 13.5615L31.6576 16.4125L14.416 6.81515L20.9677 2.21381L24.9274 4.50105H24.9288L32.1851 8.69032L33.6872 9.55743C34.612 10.0917 35.2643 10.9722 35.5194 11.9829Z" fill="url(#paint1_linear_4453_7151)"/>
        <path d="M24.9275 4.50101L0 18.7815V12.9373C0 11.5426 0.743624 10.254 1.95034 9.55738L15.8685 1.52248C17.0752 0.825839 18.5624 0.825839 19.7705 1.52248L24.9275 4.50101Z" fill="#0265DC"/>
        <path d="M35.6376 12.9373V14.9655L3.43758 33.246L1.95034 32.387C0.743624 31.689 0 30.4017 0 29.0071V26.9829L32.1852 8.69031L33.6872 9.55742C34.894 10.2541 35.6376 11.5427 35.6376 12.9373Z" fill="#0265DC"/>
        <path d="M35.6374 22.9064V29.007C35.6374 29.0755 35.636 29.144 35.632 29.2124C35.6307 29.2258 35.6307 29.2406 35.6293 29.254C35.6266 29.2943 35.624 29.3346 35.6199 29.3762C35.6159 29.4164 35.6119 29.4567 35.6065 29.497C35.6025 29.5359 35.5958 29.5748 35.5904 29.6124C35.581 29.6701 35.5716 29.7265 35.5595 29.7842C35.5528 29.8205 35.5448 29.8554 35.5367 29.8916C35.5287 29.9225 35.5206 29.9547 35.5125 29.9869C35.5058 30.0164 35.4978 30.0446 35.4884 30.0742C35.4521 30.2044 35.4079 30.3332 35.3568 30.4594C35.3461 30.4862 35.3354 30.5144 35.3233 30.5413C35.2924 30.6151 35.2589 30.6876 35.2226 30.7587C35.2052 30.795 35.1864 30.8299 35.1676 30.8648C35.1461 30.9037 35.1246 30.9426 35.1018 30.9802C35.0803 31.0191 35.0562 31.0567 35.0334 31.0943C34.985 31.1681 34.9354 31.2419 34.883 31.3131C34.8293 31.3856 34.7743 31.4554 34.7179 31.5225C34.6884 31.5574 34.6589 31.5909 34.6293 31.6232C34.5998 31.6567 34.5689 31.6889 34.538 31.7211C34.4763 31.7856 34.4119 31.8487 34.3448 31.9077C34.3193 31.9319 34.2924 31.9547 34.2656 31.9775C34.2495 31.9909 34.2334 32.0044 34.2172 32.0178C34.185 32.046 34.1515 32.0728 34.1166 32.0983C34.083 32.1252 34.0495 32.1507 34.0132 32.1748C33.9461 32.2245 33.8763 32.2715 33.8052 32.3158C33.7662 32.3399 33.7273 32.3641 33.687 32.3869L19.7703 40.4218C18.5622 41.1185 17.075 41.1185 15.8683 40.4218L10.7783 37.4836L28.4468 27.1238L35.4951 22.9896L35.6374 22.9064Z" fill="#0265DC"/>
        <path d="M6.99866 6.64331V35.301L3.43758 33.246L1.95034 32.3869C0.743624 31.6889 0 30.4017 0 29.0071V12.9373C0 11.5426 0.743624 10.254 1.95034 9.5574L6.99866 6.64331Z" fill="#0265DC"/>
        </g>
        <path d="M71.072 26.528C71.072 28.2347 70.5387 29.5253 69.472 30.4C68.4267 31.2747 66.5707 31.712 63.904 31.712H53.92V11.456H55.168H63.584C65.3547 11.456 66.7307 11.648 67.712 12.032C68.7147 12.3947 69.4187 12.9387 69.824 13.664C70.2293 14.3893 70.432 15.296 70.432 16.384C70.432 17.8773 70.0693 19.04 69.344 19.872C68.64 20.6827 67.3067 21.1733 65.344 21.344V21.44C66.7947 21.5467 67.936 21.792 68.768 22.176C69.6 22.5387 70.1867 23.072 70.528 23.776C70.8907 24.48 71.072 25.3973 71.072 26.528ZM62.176 15.488H59.04V19.456H62.176C63.2213 19.456 63.9787 19.328 64.448 19.072C64.9173 18.7947 65.152 18.2613 65.152 17.472C65.152 16.704 64.9173 16.1813 64.448 15.904C63.9787 15.6267 63.2213 15.488 62.176 15.488ZM62.816 23.648H59.04V27.712H62.816C63.8613 27.712 64.6187 27.5733 65.088 27.296C65.5573 26.9973 65.792 26.4533 65.792 25.664C65.792 24.8533 65.5573 24.32 65.088 24.064C64.6187 23.7867 63.8613 23.648 62.816 23.648ZM79.0713 31.712H73.9513V11.456H79.0713V31.712ZM96.04 11.456H101.16V31.712H96.072L90.312 23.136C89.864 22.4533 89.4907 21.8773 89.192 21.408C88.8933 20.9387 88.616 20.4693 88.36 20C88.104 19.5307 87.816 18.976 87.496 18.336L87.4 18.464C87.6987 19.488 87.88 20.448 87.944 21.344C88.008 22.2187 88.04 23.072 88.04 23.904V31.712H82.92V11.456H88.008L93.768 20.032C94.216 20.6933 94.5893 21.2693 94.888 21.76C95.1867 22.2293 95.464 22.6987 95.72 23.168C95.976 23.6373 96.264 24.192 96.584 24.832L96.68 24.704C96.4667 23.808 96.3067 22.944 96.2 22.112C96.0933 21.2587 96.04 20.416 96.04 19.584V11.456ZM123.574 31.616V31.712H118.134C117.984 31.2 117.803 30.6133 117.59 29.952C117.398 29.2907 117.184 28.5867 116.95 27.84H110.038C109.611 29.3333 109.216 30.624 108.854 31.712H103.414V31.648L109.974 11.456H117.014L123.574 31.616ZM113.43 15.104C113.216 16.192 112.907 17.5147 112.502 19.072C112.096 20.6293 111.67 22.2187 111.222 23.84H115.798C115.328 22.2187 114.891 20.6293 114.486 19.072C114.08 17.5147 113.771 16.192 113.558 15.104H113.43ZM142.978 26.528C142.978 28.2347 142.445 29.5253 141.378 30.4C140.333 31.2747 138.477 31.712 135.81 31.712H125.826V11.456H127.074H135.49C137.261 11.456 138.637 11.648 139.618 12.032C140.621 12.3947 141.325 12.9387 141.73 13.664C142.136 14.3893 142.338 15.296 142.338 16.384C142.338 17.8773 141.976 19.04 141.25 19.872C140.546 20.6827 139.213 21.1733 137.25 21.344V21.44C138.701 21.5467 139.842 21.792 140.674 22.176C141.506 22.5387 142.093 23.072 142.434 23.776C142.797 24.48 142.978 25.3973 142.978 26.528ZM134.082 15.488H130.946V19.456H134.082C135.128 19.456 135.885 19.328 136.354 19.072C136.824 18.7947 137.058 18.2613 137.058 17.472C137.058 16.704 136.824 16.1813 136.354 15.904C135.885 15.6267 135.128 15.488 134.082 15.488ZM134.722 23.648H130.946V27.712H134.722C135.768 27.712 136.525 27.5733 136.994 27.296C137.464 26.9973 137.698 26.4533 137.698 25.664C137.698 24.8533 137.464 24.32 136.994 24.064C136.525 23.7867 135.768 23.648 134.722 23.648ZM145.218 21.568C145.218 18.9867 145.506 16.9387 146.082 15.424C146.679 13.9093 147.692 12.8213 149.122 12.16C150.572 11.4987 152.588 11.168 155.17 11.168C157.111 11.168 158.722 11.3493 160.002 11.712C161.282 12.0747 162.295 12.6613 163.042 13.472C163.788 14.2827 164.311 15.36 164.61 16.704C164.93 18.0267 165.09 19.648 165.09 21.568C165.09 23.5093 164.93 25.152 164.61 26.496C164.311 27.8187 163.788 28.8853 163.042 29.696C162.295 30.5067 161.282 31.0933 160.002 31.456C158.722 31.8187 157.111 32 155.17 32C153.228 32 151.618 31.8187 150.338 31.456C149.058 31.0933 148.044 30.5067 147.298 29.696C146.551 28.8853 146.018 27.8187 145.698 26.496C145.378 25.152 145.218 23.5093 145.218 21.568ZM155.17 27.52C156.535 27.52 157.559 27.3493 158.242 27.008C158.924 26.6667 159.383 26.0693 159.618 25.216C159.852 24.3413 159.97 23.1253 159.97 21.568C159.97 20.032 159.852 18.8373 159.618 17.984C159.383 17.1307 158.924 16.5333 158.242 16.192C157.559 15.8293 156.535 15.648 155.17 15.648C153.826 15.648 152.802 15.8293 152.098 16.192C151.415 16.5333 150.946 17.1307 150.69 17.984C150.455 18.8373 150.338 20.032 150.338 21.568C150.338 23.1253 150.455 24.3413 150.69 25.216C150.946 26.0693 151.415 26.6667 152.098 27.008C152.802 27.3493 153.826 27.52 155.17 27.52ZM181.351 21.376L187.271 31.712H180.871L177.191 24.544H177.095L173.415 31.712H167.015L172.935 21.376V21.216L167.399 11.456H173.703L177.095 18.496H177.191L180.583 11.456H186.887L181.351 21.216V21.376Z" fill="#0265DC"/>
        <defs>
        <linearGradient id="paint0_linear_4453_7151" x1="34.5641" y1="27.4433" x2="20.2688" y2="17.6446" gradientUnits="userSpaceOnUse">
        <stop stop-color="#0265DC"/>
        <stop offset="1" stop-color="#0265DC" stop-opacity="0"/>
        </linearGradient>
        <linearGradient id="paint1_linear_4453_7151" x1="32.2147" y1="13.8863" x2="19.2617" y2="5.49702" gradientUnits="userSpaceOnUse">
        <stop stop-color="#0265DC"/>
        <stop offset="1" stop-color="#0265DC" stop-opacity="0"/>
        </linearGradient>
        <clipPath id="clip0_4453_7151">
        <rect width="36" height="40" fill="white" transform="translate(0 1)"/>
        </clipPath>
        </defs>
    </symbol>
    <symbol id="logos" viewBox="0 0 188 42" fill="none" xmlns="http://www.w3.org/2000/svg">
        <g clip-path="url(#clip0_5202_689)">
        <path d="M35.6376 23.0674V29.007C35.6376 29.0755 35.6363 29.144 35.6322 29.2124C35.6309 29.2258 35.6309 29.2406 35.6295 29.254C35.6269 29.2943 35.6242 29.3346 35.6201 29.3762C35.6161 29.4164 35.6121 29.4567 35.6067 29.497C35.6027 29.5359 35.596 29.5748 35.5906 29.6124C35.5812 29.6701 35.5718 29.7265 35.5597 29.7842C35.553 29.8205 35.545 29.8554 35.5369 29.8916C35.5289 29.9225 35.5208 29.9547 35.5128 29.9869C35.5061 30.0164 35.498 30.0446 35.4886 30.0742C35.4524 30.2044 35.4081 30.3332 35.3571 30.4594C35.3463 30.4862 35.3356 30.5144 35.3235 30.5413C35.2926 30.6151 35.2591 30.6876 35.2228 30.7587C35.2054 30.795 35.1866 30.8299 35.1678 30.8648L35.1665 30.8634L28.447 27.1238L17.9235 21.2661L25.8376 17.6232L35.4953 22.9896L35.6376 23.0674Z" fill="url(#paint0_linear_5202_689)"/>
        <path d="M35.5195 11.9829L33.4712 13.5614L31.6578 16.4124L14.4162 6.81513L20.9678 2.21379L24.9276 4.50104H24.9289L32.1853 8.6903L33.6873 9.55741C34.6121 10.0916 35.2645 10.9722 35.5195 11.9829Z" fill="url(#paint1_linear_5202_689)"/>
        <path d="M24.9275 4.50101L0 18.7815V12.9373C0 11.5426 0.743624 10.254 1.95034 9.55738L15.8685 1.52248C17.0752 0.825839 18.5624 0.825839 19.7705 1.52248L24.9275 4.50101Z" fill="#0265DC"/>
        <path d="M35.6376 12.9373V14.9655L3.43758 33.246L1.95034 32.3869C0.743624 31.689 0 30.4017 0 29.0071V26.9829L32.1852 8.69029L33.6872 9.55741C34.894 10.2541 35.6376 11.5426 35.6376 12.9373Z" fill="#0265DC"/>
        <path d="M35.6376 22.9064V29.007C35.6376 29.0755 35.6363 29.1439 35.6323 29.2124C35.6309 29.2258 35.6309 29.2406 35.6296 29.254C35.6269 29.2943 35.6242 29.3345 35.6202 29.3762C35.6161 29.4164 35.6121 29.4567 35.6068 29.497C35.6027 29.5359 35.596 29.5748 35.5906 29.6124C35.5812 29.6701 35.5719 29.7265 35.5598 29.7842C35.5531 29.8205 35.545 29.8554 35.537 29.8916C35.5289 29.9225 35.5208 29.9547 35.5128 29.9869C35.5061 30.0164 35.498 30.0446 35.4886 30.0741C35.4524 30.2043 35.4081 30.3332 35.3571 30.4594C35.3463 30.4862 35.3356 30.5144 35.3235 30.5413C35.2927 30.6151 35.2591 30.6876 35.2229 30.7587C35.2054 30.7949 35.1866 30.8298 35.1678 30.8647C35.1463 30.9037 35.1249 30.9426 35.1021 30.9802C35.0806 31.0191 35.0564 31.0567 35.0336 31.0943C34.9853 31.1681 34.9356 31.2419 34.8833 31.3131C34.8296 31.3856 34.7745 31.4553 34.7182 31.5225C34.6886 31.5574 34.6591 31.5909 34.6296 31.6231C34.6 31.6567 34.5692 31.6889 34.5383 31.7211C34.4765 31.7856 34.4121 31.8486 34.345 31.9077C34.3195 31.9319 34.2927 31.9547 34.2658 31.9775C34.2497 31.9909 34.2336 32.0043 34.2175 32.0178C34.1853 32.046 34.1517 32.0728 34.1168 32.0983C34.0833 32.1251 34.0497 32.1507 34.0135 32.1748C33.9463 32.2245 33.8766 32.2715 33.8054 32.3158C33.7665 32.3399 33.7276 32.3641 33.6873 32.3869L19.7705 40.4218C18.5625 41.1184 17.0752 41.1184 15.8685 40.4218L10.7786 37.4835L28.447 27.1238L35.4953 22.9896L35.6376 22.9064Z" fill="#0265DC"/>
        <path d="M6.99866 6.64331V35.301L3.43758 33.246L1.95034 32.3869C0.743624 31.6889 0 30.4017 0 29.0071V12.9373C0 11.5426 0.743624 10.254 1.95034 9.5574L6.99866 6.64331Z" fill="#0265DC"/>
        </g>
        <path d="M71.072 26.528C71.072 28.2347 70.5387 29.5253 69.472 30.4C68.4267 31.2747 66.5707 31.712 63.904 31.712H53.92V11.456H55.168H63.584C65.3547 11.456 66.7307 11.648 67.712 12.032C68.7147 12.3947 69.4187 12.9387 69.824 13.664C70.2293 14.3893 70.432 15.296 70.432 16.384C70.432 17.8773 70.0693 19.04 69.344 19.872C68.64 20.6827 67.3067 21.1733 65.344 21.344V21.44C66.7947 21.5467 67.936 21.792 68.768 22.176C69.6 22.5387 70.1867 23.072 70.528 23.776C70.8907 24.48 71.072 25.3973 71.072 26.528ZM62.176 15.488H59.04V19.456H62.176C63.2213 19.456 63.9787 19.328 64.448 19.072C64.9173 18.7947 65.152 18.2613 65.152 17.472C65.152 16.704 64.9173 16.1813 64.448 15.904C63.9787 15.6267 63.2213 15.488 62.176 15.488ZM62.816 23.648H59.04V27.712H62.816C63.8613 27.712 64.6187 27.5733 65.088 27.296C65.5573 26.9973 65.792 26.4533 65.792 25.664C65.792 24.8533 65.5573 24.32 65.088 24.064C64.6187 23.7867 63.8613 23.648 62.816 23.648ZM79.0713 31.712H73.9513V11.456H79.0713V31.712ZM96.04 11.456H101.16V31.712H96.072L90.312 23.136C89.864 22.4533 89.4907 21.8773 89.192 21.408C88.8933 20.9387 88.616 20.4693 88.36 20C88.104 19.5307 87.816 18.976 87.496 18.336L87.4 18.464C87.6987 19.488 87.88 20.448 87.944 21.344C88.008 22.2187 88.04 23.072 88.04 23.904V31.712H82.92V11.456H88.008L93.768 20.032C94.216 20.6933 94.5893 21.2693 94.888 21.76C95.1867 22.2293 95.464 22.6987 95.72 23.168C95.976 23.6373 96.264 24.192 96.584 24.832L96.68 24.704C96.4667 23.808 96.3067 22.944 96.2 22.112C96.0933 21.2587 96.04 20.416 96.04 19.584V11.456ZM123.574 31.616V31.712H118.134C117.984 31.2 117.803 30.6133 117.59 29.952C117.398 29.2907 117.184 28.5867 116.95 27.84H110.038C109.611 29.3333 109.216 30.624 108.854 31.712H103.414V31.648L109.974 11.456H117.014L123.574 31.616ZM113.43 15.104C113.216 16.192 112.907 17.5147 112.502 19.072C112.096 20.6293 111.67 22.2187 111.222 23.84H115.798C115.328 22.2187 114.891 20.6293 114.486 19.072C114.08 17.5147 113.771 16.192 113.558 15.104H113.43ZM142.978 26.528C142.978 28.2347 142.445 29.5253 141.378 30.4C140.333 31.2747 138.477 31.712 135.81 31.712H125.826V11.456H127.074H135.49C137.261 11.456 138.637 11.648 139.618 12.032C140.621 12.3947 141.325 12.9387 141.73 13.664C142.136 14.3893 142.338 15.296 142.338 16.384C142.338 17.8773 141.976 19.04 141.25 19.872C140.546 20.6827 139.213 21.1733 137.25 21.344V21.44C138.701 21.5467 139.842 21.792 140.674 22.176C141.506 22.5387 142.093 23.072 142.434 23.776C142.797 24.48 142.978 25.3973 142.978 26.528ZM134.082 15.488H130.946V19.456H134.082C135.128 19.456 135.885 19.328 136.354 19.072C136.824 18.7947 137.058 18.2613 137.058 17.472C137.058 16.704 136.824 16.1813 136.354 15.904C135.885 15.6267 135.128 15.488 134.082 15.488ZM134.722 23.648H130.946V27.712H134.722C135.768 27.712 136.525 27.5733 136.994 27.296C137.464 26.9973 137.698 26.4533 137.698 25.664C137.698 24.8533 137.464 24.32 136.994 24.064C136.525 23.7867 135.768 23.648 134.722 23.648ZM145.218 21.568C145.218 18.9867 145.506 16.9387 146.082 15.424C146.679 13.9093 147.692 12.8213 149.122 12.16C150.572 11.4987 152.588 11.168 155.17 11.168C157.111 11.168 158.722 11.3493 160.002 11.712C161.282 12.0747 162.295 12.6613 163.042 13.472C163.788 14.2827 164.311 15.36 164.61 16.704C164.93 18.0267 165.09 19.648 165.09 21.568C165.09 23.5093 164.93 25.152 164.61 26.496C164.311 27.8187 163.788 28.8853 163.042 29.696C162.295 30.5067 161.282 31.0933 160.002 31.456C158.722 31.8187 157.111 32 155.17 32C153.228 32 151.618 31.8187 150.338 31.456C149.058 31.0933 148.044 30.5067 147.298 29.696C146.551 28.8853 146.018 27.8187 145.698 26.496C145.378 25.152 145.218 23.5093 145.218 21.568ZM155.17 27.52C156.535 27.52 157.559 27.3493 158.242 27.008C158.924 26.6667 159.383 26.0693 159.618 25.216C159.852 24.3413 159.97 23.1253 159.97 21.568C159.97 20.032 159.852 18.8373 159.618 17.984C159.383 17.1307 158.924 16.5333 158.242 16.192C157.559 15.8293 156.535 15.648 155.17 15.648C153.826 15.648 152.802 15.8293 152.098 16.192C151.415 16.5333 150.946 17.1307 150.69 17.984C150.455 18.8373 150.338 20.032 150.338 21.568C150.338 23.1253 150.455 24.3413 150.69 25.216C150.946 26.0693 151.415 26.6667 152.098 27.008C152.802 27.3493 153.826 27.52 155.17 27.52ZM181.351 21.376L187.271 31.712H180.871L177.191 24.544H177.095L173.415 31.712H167.015L172.935 21.376V21.216L167.399 11.456H173.703L177.095 18.496H177.191L180.583 11.456H186.887L181.351 21.216V21.376Z" fill="white"/>
        <defs>
        <linearGradient id="paint0_linear_5202_689" x1="34.5638" y1="27.4433" x2="20.2685" y2="17.6446" gradientUnits="userSpaceOnUse">
        <stop stop-color="#0265DC"/>
        <stop offset="1" stop-color="#0265DC" stop-opacity="0"/>
        </linearGradient>
        <linearGradient id="paint1_linear_5202_689" x1="32.2148" y1="13.8863" x2="19.2618" y2="5.49701" gradientUnits="userSpaceOnUse">
        <stop stop-color="#0265DC"/>
        <stop offset="1" stop-color="#0265DC" stop-opacity="0"/>
        </linearGradient>
        <clipPath id="clip0_5202_689">
        <rect width="36" height="40" fill="white" transform="translate(0 1)"/>
        </clipPath>
        </defs>
    </symbol>
    <symbol id="facebook-small-icon" viewBox="0 0 24 24" fill="none" xmlns="http://www.w3.org/2000/svg">
        <path fill-rule="evenodd" clip-rule="evenodd" d="M13.2532 20.5038C17.4249 19.8391 20.6133 16.2249 20.6133 11.8661C20.6133 7.03521 16.6971 3.11902 11.8662 3.11902C7.03533 3.11902 3.11914 7.03521 3.11914 11.8661C3.11914 16.2249 6.30741 19.8391 10.4791 20.5038C10.4711 20.4837 10.4666 20.4617 10.4666 20.4388V14.4908C10.4666 14.3942 10.3883 14.3158 10.2917 14.3158H8.54228C8.44566 14.3158 8.36734 14.2375 8.36734 14.1409V12.0416C8.36734 11.945 8.44566 11.8667 8.54228 11.8667H10.2917C10.3883 11.8667 10.4666 11.7883 10.4666 11.6917V9.41748C10.4666 8.36783 11.5863 6.61842 13.2657 6.61842H15.54C15.6366 6.61842 15.7149 6.69674 15.7149 6.79336V8.89265C15.7149 8.98927 15.6365 9.06759 15.5399 9.06759H14.4903C14.1404 9.06759 13.2657 9.41748 13.2657 10.1172V11.6918C13.2657 11.7884 13.344 11.8667 13.4406 11.8667H15.19C15.2867 11.8667 15.365 11.945 15.365 12.0416V14.1409C15.365 14.2375 15.2867 14.3158 15.19 14.3158H13.4406C13.344 14.3158 13.2657 14.3942 13.2657 14.4908V20.4388C13.2657 20.4617 13.2613 20.4837 13.2532 20.5038Z" fill="#F5F8FB"/>
    </symbol>
    <symbol id="instagram-icon" viewBox="0 0 24 24" fill="none" xmlns="http://www.w3.org/2000/svg">
        <path fill-rule="evenodd" clip-rule="evenodd" d="M8.19471 2.82461C9.17904 2.7793 9.49289 2.76923 12.0003 2.76923C14.5077 2.76923 14.8216 2.78014 15.8051 2.82461C16.7886 2.86909 17.4599 3.02601 18.0473 3.25342C18.6624 3.48587 19.2204 3.84923 19.682 4.31916C20.1519 4.77986 20.5144 5.33706 20.746 5.953C20.9743 6.54042 21.1304 7.21174 21.1757 8.19356C21.221 9.17958 21.2311 9.49342 21.2311 12C21.2311 14.5074 21.2202 14.8213 21.1757 15.8056C21.1312 16.7874 20.9743 17.4587 20.746 18.0462C20.5144 18.6622 20.1513 19.2203 19.682 19.6817C19.2204 20.1516 18.6624 20.5141 18.0473 20.7457C17.4599 20.974 16.7886 21.1301 15.8067 21.1754C14.8216 21.2207 14.5077 21.2308 12.0003 21.2308C9.49289 21.2308 9.17904 21.2199 8.19471 21.1754C7.21289 21.1309 6.54156 20.974 5.95415 20.7457C5.33814 20.5141 4.78001 20.151 4.31862 19.6817C3.84901 19.2207 3.4856 18.6628 3.25373 18.047C3.02631 17.4596 2.87023 16.7882 2.82492 15.8064C2.7796 14.8204 2.76953 14.5066 2.76953 12C2.76953 9.49258 2.78044 9.17874 2.82492 8.19524C2.86939 7.21174 3.02631 6.54042 3.25373 5.953C3.48594 5.33713 3.84963 4.77928 4.31946 4.31832C4.78019 3.84881 5.33776 3.4854 5.95331 3.25342C6.54072 3.02601 7.21205 2.86993 8.19387 2.82461H8.19471ZM15.7304 4.48615C14.7569 4.44167 14.4649 4.43244 12.0003 4.43244C9.53569 4.43244 9.24366 4.44167 8.27023 4.48615C7.36981 4.52727 6.88142 4.67748 6.55583 4.80419C6.12534 4.97202 5.81736 5.1709 5.49429 5.49398C5.18803 5.79193 4.95234 6.15464 4.8045 6.55552C4.67778 6.88111 4.52757 7.36951 4.48645 8.26993C4.44198 9.24335 4.43275 9.53538 4.43275 12C4.43275 14.4646 4.44198 14.7566 4.48645 15.7301C4.52757 16.6305 4.67778 17.1189 4.8045 17.4445C4.95219 17.8448 5.18799 18.2081 5.49429 18.506C5.79219 18.8123 6.15555 19.0481 6.55583 19.1958C6.88142 19.3225 7.36981 19.4727 8.27023 19.5138C9.24366 19.5583 9.53485 19.5676 12.0003 19.5676C14.4658 19.5676 14.7569 19.5583 15.7304 19.5138C16.6308 19.4727 17.1192 19.3225 17.4448 19.1958C17.8753 19.028 18.1832 18.8291 18.5063 18.506C18.8126 18.2081 19.0484 17.8448 19.1961 17.4445C19.3228 17.1189 19.473 16.6305 19.5142 15.7301C19.5586 14.7566 19.5679 14.4646 19.5679 12C19.5679 9.53538 19.5586 9.24335 19.5142 8.26993C19.473 7.36951 19.3228 6.88111 19.1961 6.55552C19.0283 6.12503 18.8294 5.81706 18.5063 5.49398C18.2084 5.18775 17.8456 4.95206 17.4448 4.80419C17.1192 4.67748 16.6308 4.52727 15.7304 4.48615ZM10.8213 14.8456C11.4797 15.1197 12.2129 15.1567 12.8956 14.9503C13.5783 14.7438 14.1682 14.3068 14.5645 13.7138C14.9607 13.1208 15.1388 12.4086 15.0683 11.6988C14.9978 10.9891 14.6831 10.3258 14.1779 9.82237C13.8559 9.50054 13.4665 9.2541 13.0378 9.10082C12.6091 8.94753 12.1517 8.89121 11.6986 8.9359C11.2455 8.98059 10.808 9.12518 10.4175 9.35927C10.027 9.59335 9.69323 9.91111 9.44028 10.2897C9.18732 10.6682 9.02144 11.0981 8.95458 11.5485C8.88772 11.9988 8.92155 12.4584 9.05362 12.8941C9.1857 13.3298 9.41273 13.7309 9.71839 14.0683C10.024 14.4057 10.4007 14.6712 10.8213 14.8456ZM8.64534 8.64503C9.08592 8.20445 9.60896 7.85496 10.1846 7.61652C10.7603 7.37808 11.3772 7.25536 12.0003 7.25536C12.6234 7.25536 13.2404 7.37808 13.816 7.61652C14.3916 7.85496 14.9147 8.20445 15.3553 8.64503C15.7958 9.08561 16.1453 9.60866 16.3838 10.1843C16.6222 10.7599 16.7449 11.3769 16.7449 12C16.7449 12.6231 16.6222 13.24 16.3838 13.8157C16.1453 14.3913 15.7958 14.9144 15.3553 15.355C14.4655 16.2448 13.2587 16.7446 12.0003 16.7446C10.7419 16.7446 9.53513 16.2448 8.64534 15.355C7.75554 14.4652 7.25566 13.2584 7.25566 12C7.25566 10.7416 7.75554 9.53482 8.64534 8.64503ZM17.7972 7.96195C17.9064 7.85896 17.9938 7.73511 18.0543 7.59774C18.1147 7.46036 18.147 7.31225 18.1492 7.16218C18.1514 7.0121 18.1234 6.86311 18.067 6.72403C18.0106 6.58495 17.9268 6.45861 17.8207 6.35248C17.7146 6.24635 17.5882 6.16259 17.4491 6.10616C17.3101 6.04974 17.1611 6.02179 17.011 6.02398C16.8609 6.02617 16.7128 6.05845 16.5754 6.1189C16.4381 6.17936 16.3142 6.26676 16.2112 6.37594C16.0109 6.58827 15.9013 6.87031 15.9055 7.16218C15.9098 7.45404 16.0276 7.73276 16.234 7.93917C16.4404 8.14557 16.7191 8.2634 17.011 8.26766C17.3029 8.27191 17.5849 8.16225 17.7972 7.96195Z" fill="#F5F8FB"/>
    </symbol>
    <symbol id="telegram-small-icon" viewBox="0 0 24 24" fill="none" xmlns="http://www.w3.org/2000/svg">
        <path fill-rule="evenodd" clip-rule="evenodd" d="M21.2311 12C21.2311 17.098 17.0983 21.2308 12.0003 21.2308C6.90229 21.2308 2.76953 17.098 2.76953 12C2.76953 6.90198 6.90229 2.76923 12.0003 2.76923C17.0983 2.76923 21.2311 6.90198 21.2311 12ZM12.3304 9.58335C11.4326 9.95679 9.63821 10.7297 6.94725 11.9021C6.51028 12.0759 6.28138 12.2459 6.26054 12.4121C6.22532 12.693 6.57711 12.8036 7.05616 12.9543C7.12132 12.9748 7.18884 12.996 7.25806 13.0185C7.72936 13.1717 8.36336 13.3509 8.69294 13.358C8.99191 13.3645 9.32559 13.2413 9.69398 12.9883C12.2082 11.2911 13.5061 10.4333 13.5876 10.4148C13.6451 10.4017 13.7247 10.3853 13.7787 10.4333C13.8327 10.4813 13.8274 10.5721 13.8216 10.5965C13.7868 10.7451 12.4059 12.0289 11.6912 12.6933C11.4685 12.9004 11.3105 13.0473 11.2782 13.0808C11.2058 13.156 11.132 13.2271 11.0612 13.2954C10.6233 13.7175 10.295 14.034 11.0793 14.5509C11.4563 14.7993 11.7579 15.0047 12.0588 15.2097C12.3875 15.4335 12.7152 15.6567 13.1393 15.9347C13.2474 16.0055 13.3506 16.0791 13.4511 16.1507C13.8335 16.4234 14.1771 16.6683 14.6016 16.6293C14.8483 16.6066 15.1031 16.3746 15.2325 15.6829C15.5383 14.0481 16.1394 10.5061 16.2783 9.04647C16.2904 8.91859 16.2751 8.75492 16.2628 8.68308C16.2505 8.61124 16.2248 8.50888 16.1315 8.4331C16.0209 8.34336 15.8501 8.32444 15.7738 8.32578C15.4266 8.3319 14.8939 8.51711 12.3304 9.58335Z" fill="#F5F8FB"/>
    </symbol>
    <symbol id="linkedin-icon" viewBox="0 0 20 20" fill="none" xmlns="http://www.w3.org/2000/svg">
        <path d="M17.8645 0.769226H2.13251C1.37891 0.769226 0.769531 1.36418 0.769531 2.09976V17.8966C0.769531 18.6322 1.37891 19.2308 2.13251 19.2308H17.8645C18.6181 19.2308 19.2311 18.6322 19.2311 17.9002V2.09976C19.2311 1.36418 18.6181 0.769226 17.8645 0.769226ZM6.2467 16.5012H3.50631V7.6887H6.2467V16.5012ZM4.8765 6.48798C3.9967 6.48798 3.28636 5.77764 3.28636 4.90144C3.28636 4.02524 3.9967 3.3149 4.8765 3.3149C5.75271 3.3149 6.46304 4.02524 6.46304 4.90144C6.46304 5.77403 5.75271 6.48798 4.8765 6.48798ZM16.5015 16.5012H13.7647V12.2175C13.7647 11.1971 13.7467 9.88101 12.3404 9.88101C10.9162 9.88101 10.6998 10.9952 10.6998 12.1454V16.5012H7.96665V7.6887H10.5916V8.89303H10.6277C10.9919 8.20072 11.8861 7.46875 13.2167 7.46875C15.9895 7.46875 16.5015 9.29327 16.5015 11.6659V16.5012Z" fill="#F5F8FB"/>
    </symbol>
</svg>







