<svg width="20" height="20" viewBox="0 0 20 20" fill="none" xmlns="http://www.w3.org/2000/svg">
<path d="M17.0333 0.769226H2.96733C1.75547 0.769226 0.769531 1.75516 0.769531 2.96703V17.033C0.769531 18.2448 1.75547 19.2308 2.96733 19.2308H17.0333C18.2451 19.2308 19.2311 18.2448 19.2311 17.033V2.96703C19.2311 1.75516 18.2451 0.769226 17.0333 0.769226ZM15.2777 8.82329C15.1779 8.83252 15.0768 8.83868 14.9744 8.83868C13.8214 8.83868 12.8082 8.24571 12.2188 7.34945C12.2188 9.70065 12.2188 12.3758 12.2188 12.4207C12.2188 14.4905 10.5405 16.1688 8.47063 16.1688C6.40074 16.1688 4.7225 14.4905 4.7225 12.4207C4.7225 10.3508 6.40074 8.67252 8.47063 8.67252C8.54887 8.67252 8.62536 8.67956 8.70228 8.68439V10.5314C8.62536 10.5222 8.54975 10.5081 8.47063 10.5081C7.41393 10.5081 6.55766 11.3644 6.55766 12.4211C6.55766 13.4778 7.41393 14.3341 8.47063 14.3341C9.52733 14.3341 10.4605 13.5015 10.4605 12.4448C10.4605 12.4031 10.479 3.83208 10.479 3.83208H12.2443C12.4104 5.41054 13.6847 6.65626 15.2777 6.77054V8.82329Z" fill="#F5F8FB"/>
</svg>
