<svg width="20" height="18" viewBox="0 0 20 18" fill="none" xmlns="http://www.w3.org/2000/svg">
<path d="M17.6441 3.17993C18.5012 2.64375 19.1425 1.79948 19.4483 0.804742C18.6429 1.3048 17.7618 1.65705 16.8429 1.84626C15.569 0.436085 13.5505 0.0929117 11.9155 1.0085C10.2804 1.92409 9.4335 3.87177 9.84798 5.76323C6.54901 5.58991 3.47544 3.95924 1.3921 1.27698C0.304847 3.23938 0.860458 5.748 2.66182 7.00985C2.01043 6.98794 1.37348 6.80338 0.804092 6.47158C0.804092 6.48959 0.804092 6.5076 0.804092 6.52561C0.804469 8.56978 2.18125 10.3306 4.09599 10.7357C3.49179 10.9077 2.85802 10.9331 2.24304 10.8098C2.78153 12.5579 4.32121 13.7555 6.07611 13.7912C4.62265 14.985 2.82769 15.6323 0.980017 15.6292C0.65252 15.6297 0.32528 15.6099 0 15.5701C1.87627 16.8318 4.06002 17.5015 6.29028 17.4991C9.39311 17.5214 12.375 16.2414 14.569 13.9453C16.763 11.6493 17.986 8.52886 17.9644 5.28198C17.9644 5.09589 17.9603 4.9108 17.952 4.72671C18.7556 4.119 19.4491 3.36617 20 2.50359C19.2514 2.85083 18.4573 3.0788 17.6441 3.17993Z" fill="#F5F8FB"/>
</svg>
