<svg width="71" height="51" viewBox="0 0 71 51" fill="none" xmlns="http://www.w3.org/2000/svg">
<g opacity="0.5">
<mask id="path-1-outside-1_6795_99" maskUnits="userSpaceOnUse" x="-2" y="-2" width="75" height="55" fill="black">
<rect fill="white" x="-2" y="-2" width="75" height="55"/>
<path d="M43.12 25.88C43.12 31.96 42.4267 36.84 41.04 40.52C39.6533 44.2 37.4133 46.8667 34.32 48.52C31.2267 50.1733 27.0933 51 21.92 51C16.8 51 12.6933 50.1733 9.6 48.52C6.50667 46.8667 4.26667 44.2 2.88 40.52C1.49333 36.84 0.8 31.96 0.8 25.88C0.8 19.7467 1.49333 14.84 2.88 11.16C4.26667 7.48 6.50667 4.81333 9.6 3.16C12.6933 1.50666 16.8 0.679999 21.92 0.679999C27.0933 0.679999 31.2267 1.50666 34.32 3.16C37.4133 4.81333 39.6533 7.48 41.04 11.16C42.4267 14.84 43.12 19.7467 43.12 25.88ZM21.92 40.36C25.5467 40.36 27.92 39.1867 29.04 36.84C30.2133 34.44 30.8 30.7867 30.8 25.88C30.8 20.92 30.2133 17.2667 29.04 14.92C27.92 12.5733 25.5467 11.4 21.92 11.4C18.3467 11.4 15.9733 12.5733 14.8 14.92C13.68 17.2667 13.12 20.92 13.12 25.88C13.12 30.7867 13.68 34.44 14.8 36.84C15.9733 39.1867 18.3467 40.36 21.92 40.36ZM49.0906 20.68V7.08L58.4506 1.16H70.4506L70.6106 50.28H58.4506V15H58.0506L49.4906 20.68H49.0906Z"/>
</mask>
<path d="M41.04 40.52L42.9115 41.2252L41.04 40.52ZM9.6 48.52L10.5428 46.7561L9.6 48.52ZM2.88 40.52L4.75154 39.8148L2.88 40.52ZM2.88 11.16L4.75154 11.8652L2.88 11.16ZM9.6 3.16L8.65725 1.39613L8.65725 1.39613L9.6 3.16ZM34.32 3.16L35.2628 1.39613V1.39613L34.32 3.16ZM41.04 11.16L42.9115 10.4548L41.04 11.16ZM29.04 36.84L27.2432 35.9616L27.2391 35.97L27.235 35.9785L29.04 36.84ZM29.04 14.92L27.235 15.7815L27.2429 15.798L27.2511 15.8144L29.04 14.92ZM14.8 14.92L13.0111 14.0256L13.0029 14.042L12.995 14.0585L14.8 14.92ZM14.8 36.84L12.9876 37.6858L12.9991 37.7103L13.0111 37.7344L14.8 36.84ZM41.12 25.88C41.12 31.8363 40.4369 36.4486 39.1685 39.8148L42.9115 41.2252C44.4165 37.2314 45.12 32.0837 45.12 25.88H41.12ZM39.1685 39.8148C37.9306 43.0999 35.9904 45.3594 33.3772 46.7561L35.2628 50.2839C38.8363 48.3739 41.3761 45.3001 42.9115 41.2252L39.1685 39.8148ZM33.3772 46.7561C30.6792 48.1982 26.9091 49 21.92 49V53C27.2776 53 31.7741 52.1485 35.2628 50.2839L33.3772 46.7561ZM21.92 49C16.9883 49 13.2432 48.1995 10.5428 46.7561L8.65725 50.2839C12.1434 52.1472 16.6117 53 21.92 53V49ZM10.5428 46.7561C7.92958 45.3594 5.98941 43.0999 4.75154 39.8148L1.00846 41.2252C2.54392 45.3001 5.08375 48.3739 8.65725 50.2839L10.5428 46.7561ZM4.75154 39.8148C3.48313 36.4486 2.8 31.8363 2.8 25.88H-1.2C-1.2 32.0837 -0.496459 37.2314 1.00846 41.2252L4.75154 39.8148ZM2.8 25.88C2.8 19.8679 3.48369 15.2299 4.75154 11.8652L1.00846 10.4548C-0.497025 14.4501 -1.2 19.6254 -1.2 25.88H2.8ZM4.75154 11.8652C5.98941 8.5801 7.92958 6.32055 10.5428 4.92386L8.65725 1.39613C5.08375 3.30611 2.54392 6.37989 1.00846 10.4548L4.75154 11.8652ZM10.5428 4.92386C13.2432 3.4805 16.9883 2.68 21.92 2.68V-1.32C16.6117 -1.32 12.1434 -0.467167 8.65725 1.39613L10.5428 4.92386ZM21.92 2.68C26.9091 2.68 30.6792 3.48181 33.3772 4.92386L35.2628 1.39613C31.7741 -0.468477 27.2776 -1.32 21.92 -1.32V2.68ZM33.3772 4.92386C35.9904 6.32055 37.9306 8.5801 39.1685 11.8652L42.9115 10.4548C41.3761 6.37989 38.8363 3.30611 35.2628 1.39613L33.3772 4.92386ZM39.1685 11.8652C40.4363 15.2299 41.12 19.8679 41.12 25.88H45.12C45.12 19.6254 44.417 14.4501 42.9115 10.4548L39.1685 11.8652ZM21.92 42.36C25.9646 42.36 29.2641 41.0138 30.845 37.7015L27.235 35.9785C26.5759 37.3595 25.1288 38.36 21.92 38.36V42.36ZM30.8368 37.7184C32.2136 34.9021 32.8 30.8773 32.8 25.88H28.8C28.8 30.696 28.2131 33.9779 27.2432 35.9616L30.8368 37.7184ZM32.8 25.88C32.8 20.8388 32.2163 16.8004 30.8289 14.0256L27.2511 15.8144C28.2104 17.733 28.8 21.0012 28.8 25.88H32.8ZM30.845 14.0585C29.2641 10.7462 25.9646 9.4 21.92 9.4V13.4C25.1288 13.4 26.5759 14.4005 27.235 15.7815L30.845 14.0585ZM21.92 9.4C17.9073 9.4 14.6453 10.7572 13.0111 14.0256L16.5889 15.8144C17.3013 14.3895 18.786 13.4 21.92 13.4V9.4ZM12.995 14.0585C11.6766 16.8211 11.12 20.8447 11.12 25.88H15.12C15.12 20.9953 15.6834 17.7123 16.605 15.7815L12.995 14.0585ZM11.12 25.88C11.12 30.8712 11.679 34.8816 12.9876 37.6858L16.6124 35.9942C15.681 33.9984 15.12 30.7021 15.12 25.88H11.12ZM13.0111 37.7344C14.6453 41.0028 17.9073 42.36 21.92 42.36V38.36C18.786 38.36 17.3013 37.3705 16.5889 35.9456L13.0111 37.7344ZM49.0906 20.68H47.0906V22.68H49.0906V20.68ZM49.0906 7.08L48.0216 5.38971L47.0906 5.9785V7.08H49.0906ZM58.4506 1.16V-0.840002H57.8712L57.3816 -0.530293L58.4506 1.16ZM70.4506 1.16L72.4506 1.15348L72.4441 -0.840002H70.4506V1.16ZM70.6106 50.28V52.28H72.6171L72.6106 50.2735L70.6106 50.28ZM58.4506 50.28H56.4506V52.28H58.4506V50.28ZM58.4506 15H60.4506V13H58.4506V15ZM58.0506 15V13H57.4474L56.9448 13.3335L58.0506 15ZM49.4906 20.68V22.68H50.0938L50.5964 22.3465L49.4906 20.68ZM51.0906 20.68V7.08H47.0906V20.68H51.0906ZM50.1597 8.77029L59.5197 2.85029L57.3816 -0.530293L48.0216 5.38971L50.1597 8.77029ZM58.4506 3.16H70.4506V-0.840002H58.4506V3.16ZM68.4506 1.16651L68.6106 50.2865L72.6106 50.2735L72.4506 1.15348L68.4506 1.16651ZM70.6106 48.28H58.4506V52.28H70.6106V48.28ZM60.4506 50.28V15H56.4506V50.28H60.4506ZM58.4506 13H58.0506V17H58.4506V13ZM56.9448 13.3335L48.3848 19.0135L50.5964 22.3465L59.1564 16.6665L56.9448 13.3335ZM49.4906 18.68H49.0906V22.68H49.4906V18.68Z" fill="#0265DC" mask="url(#path-1-outside-1_6795_99)"/>
</g>
</svg>
