<svg width="86" height="51" viewBox="0 0 86 51" fill="none" xmlns="http://www.w3.org/2000/svg">
<g opacity="0.5">
<mask id="path-1-outside-1_6795_1067" maskUnits="userSpaceOnUse" x="-2" y="-2" width="90" height="55" fill="black">
<rect fill="white" x="-2" y="-2" width="90" height="55"/>
<path d="M43.12 25.88C43.12 31.96 42.4267 36.84 41.04 40.52C39.6533 44.2 37.4133 46.8667 34.32 48.52C31.2267 50.1733 27.0933 51 21.92 51C16.8 51 12.6933 50.1733 9.6 48.52C6.50667 46.8667 4.26667 44.2 2.88 40.52C1.49333 36.84 0.8 31.96 0.8 25.88C0.8 19.7467 1.49333 14.84 2.88 11.16C4.26667 7.48 6.50667 4.81333 9.6 3.16C12.6933 1.50666 16.8 0.679999 21.92 0.679999C27.0933 0.679999 31.2267 1.50666 34.32 3.16C37.4133 4.81333 39.6533 7.48 41.04 11.16C42.4267 14.84 43.12 19.7467 43.12 25.88ZM21.92 40.36C25.5467 40.36 27.92 39.1867 29.04 36.84C30.2133 34.44 30.8 30.7867 30.8 25.88C30.8 20.92 30.2133 17.2667 29.04 14.92C27.92 12.5733 25.5467 11.4 21.92 11.4C18.3467 11.4 15.9733 12.5733 14.8 14.92C13.68 17.2667 13.12 20.92 13.12 25.88C13.12 30.7867 13.68 34.44 14.8 36.84C15.9733 39.1867 18.3467 40.36 21.92 40.36ZM51.4906 2.6C53.8373 1.85333 56.264 1.34667 58.7706 1.08C61.3306 0.759997 64.0773 0.599996 67.0106 0.599996C71.5973 0.599996 75.224 1.05333 77.8906 1.96C80.5573 2.81333 82.4506 4.14667 83.5706 5.96C84.744 7.77333 85.3306 10.0667 85.3306 12.84C85.3306 16.0933 84.5573 18.84 83.0106 21.08C81.464 23.2667 78.7973 24.6 75.0106 25.08V25.48C78.9573 25.6933 81.7573 26.7867 83.4106 28.76C85.1173 30.7333 85.9706 33.16 85.9706 36.04C85.9706 40.84 84.3706 44.4667 81.1706 46.92C78.024 49.32 72.9573 50.6 65.9706 50.76C62.3973 50.8133 59.2506 50.6267 56.5306 50.2C53.8106 49.7733 51.3306 49.1867 49.0906 48.44V38.44H49.5706C51.704 39.1333 53.864 39.64 56.0506 39.96C58.2373 40.28 60.7173 40.44 63.4906 40.44C67.224 40.44 69.9173 40.04 71.5706 39.24C73.224 38.44 74.0506 37.0533 74.0506 35.08C74.0506 33.2667 73.4106 32.04 72.1306 31.4C70.904 30.7067 68.6106 30.36 65.2506 30.36H58.8506V20.04H64.2106C68.0506 20.04 70.6373 19.72 71.9706 19.08C73.3573 18.3867 74.0506 17.16 74.0506 15.4C74.0506 13.5867 73.2773 12.3867 71.7306 11.8C70.2373 11.2133 67.5973 10.92 63.8106 10.92C61.7306 10.92 59.624 11.08 57.4906 11.4C55.4106 11.72 53.5173 12.1467 51.8106 12.68L51.4906 12.6V2.6Z"/>
</mask>
<path d="M41.04 40.52L42.9115 41.2252L41.04 40.52ZM9.6 48.52L10.5428 46.7561L9.6 48.52ZM2.88 40.52L4.75154 39.8148L2.88 40.52ZM2.88 11.16L4.75154 11.8652L2.88 11.16ZM9.6 3.16L8.65725 1.39613L8.65725 1.39613L9.6 3.16ZM34.32 3.16L35.2628 1.39613V1.39613L34.32 3.16ZM41.04 11.16L42.9115 10.4548L41.04 11.16ZM29.04 36.84L27.2432 35.9616L27.2391 35.97L27.235 35.9785L29.04 36.84ZM29.04 14.92L27.235 15.7815L27.2429 15.798L27.2511 15.8144L29.04 14.92ZM14.8 14.92L13.0111 14.0256L13.0029 14.042L12.995 14.0585L14.8 14.92ZM14.8 36.84L12.9876 37.6858L12.9991 37.7103L13.0111 37.7344L14.8 36.84ZM41.12 25.88C41.12 31.8363 40.4369 36.4486 39.1685 39.8148L42.9115 41.2252C44.4165 37.2314 45.12 32.0837 45.12 25.88H41.12ZM39.1685 39.8148C37.9306 43.0999 35.9904 45.3594 33.3772 46.7561L35.2628 50.2839C38.8363 48.3739 41.3761 45.3001 42.9115 41.2252L39.1685 39.8148ZM33.3772 46.7561C30.6792 48.1982 26.9091 49 21.92 49V53C27.2776 53 31.7741 52.1485 35.2628 50.2839L33.3772 46.7561ZM21.92 49C16.9883 49 13.2432 48.1995 10.5428 46.7561L8.65725 50.2839C12.1434 52.1472 16.6117 53 21.92 53V49ZM10.5428 46.7561C7.92958 45.3594 5.98941 43.0999 4.75154 39.8148L1.00846 41.2252C2.54392 45.3001 5.08375 48.3739 8.65725 50.2839L10.5428 46.7561ZM4.75154 39.8148C3.48313 36.4486 2.8 31.8363 2.8 25.88H-1.2C-1.2 32.0837 -0.496459 37.2314 1.00846 41.2252L4.75154 39.8148ZM2.8 25.88C2.8 19.8679 3.48369 15.2299 4.75154 11.8652L1.00846 10.4548C-0.497025 14.4501 -1.2 19.6254 -1.2 25.88H2.8ZM4.75154 11.8652C5.98941 8.5801 7.92958 6.32055 10.5428 4.92386L8.65725 1.39613C5.08375 3.30611 2.54392 6.37989 1.00846 10.4548L4.75154 11.8652ZM10.5428 4.92386C13.2432 3.4805 16.9883 2.68 21.92 2.68V-1.32C16.6117 -1.32 12.1434 -0.467167 8.65725 1.39613L10.5428 4.92386ZM21.92 2.68C26.9091 2.68 30.6792 3.48181 33.3772 4.92386L35.2628 1.39613C31.7741 -0.468477 27.2776 -1.32 21.92 -1.32V2.68ZM33.3772 4.92386C35.9904 6.32055 37.9306 8.5801 39.1685 11.8652L42.9115 10.4548C41.3761 6.37989 38.8363 3.30611 35.2628 1.39613L33.3772 4.92386ZM39.1685 11.8652C40.4363 15.2299 41.12 19.8679 41.12 25.88H45.12C45.12 19.6254 44.417 14.4501 42.9115 10.4548L39.1685 11.8652ZM21.92 42.36C25.9646 42.36 29.2641 41.0138 30.845 37.7015L27.235 35.9785C26.5759 37.3595 25.1288 38.36 21.92 38.36V42.36ZM30.8368 37.7184C32.2136 34.9021 32.8 30.8773 32.8 25.88H28.8C28.8 30.696 28.2131 33.9779 27.2432 35.9616L30.8368 37.7184ZM32.8 25.88C32.8 20.8388 32.2163 16.8004 30.8289 14.0256L27.2511 15.8144C28.2104 17.733 28.8 21.0012 28.8 25.88H32.8ZM30.845 14.0585C29.2641 10.7462 25.9646 9.4 21.92 9.4V13.4C25.1288 13.4 26.5759 14.4005 27.235 15.7815L30.845 14.0585ZM21.92 9.4C17.9073 9.4 14.6453 10.7572 13.0111 14.0256L16.5889 15.8144C17.3013 14.3895 18.786 13.4 21.92 13.4V9.4ZM12.995 14.0585C11.6766 16.8211 11.12 20.8447 11.12 25.88H15.12C15.12 20.9953 15.6834 17.7123 16.605 15.7815L12.995 14.0585ZM11.12 25.88C11.12 30.8712 11.679 34.8816 12.9876 37.6858L16.6124 35.9942C15.681 33.9984 15.12 30.7021 15.12 25.88H11.12ZM13.0111 37.7344C14.6453 41.0028 17.9073 42.36 21.92 42.36V38.36C18.786 38.36 17.3013 37.3705 16.5889 35.9456L13.0111 37.7344ZM51.4906 2.6L50.8842 0.694147L49.4906 1.13756V2.6H51.4906ZM58.7706 1.08L58.9822 3.06878L59.0005 3.06683L59.0187 3.06455L58.7706 1.08ZM77.8906 1.96L77.2468 3.85354L77.2639 3.85935L77.2811 3.86485L77.8906 1.96ZM83.5706 5.96L81.869 7.01098L81.8801 7.02886L81.8915 7.0465L83.5706 5.96ZM83.0106 21.08L84.6435 22.2349L84.65 22.2257L84.6564 22.2164L83.0106 21.08ZM75.0106 25.08L74.7591 23.0959L73.0106 23.3175V25.08H75.0106ZM75.0106 25.48H73.0106V27.3748L74.9027 27.4771L75.0106 25.48ZM83.4106 28.76L81.8776 30.0444L81.8876 30.0564L81.8979 30.0683L83.4106 28.76ZM81.1706 46.92L82.3835 48.5102L82.3875 48.5072L81.1706 46.92ZM65.9706 50.76L66.0005 52.7598L66.0084 52.7597L66.0164 52.7595L65.9706 50.76ZM56.5306 50.2L56.2207 52.1758L56.5306 50.2ZM49.0906 48.44H47.0906V49.8815L48.4582 50.3374L49.0906 48.44ZM49.0906 38.44V36.44H47.0906V38.44H49.0906ZM49.5706 38.44L50.1888 36.5379L49.8875 36.44H49.5706V38.44ZM56.0506 39.96L56.3402 37.9811L56.0506 39.96ZM71.5706 39.24L70.6995 37.4397L71.5706 39.24ZM72.1306 31.4L71.1465 33.1411L71.1908 33.1661L71.2362 33.1889L72.1306 31.4ZM58.8506 30.36H56.8506V32.36H58.8506V30.36ZM58.8506 20.04V18.04H56.8506V20.04H58.8506ZM71.9706 19.08L72.8361 20.883L72.8506 20.8761L72.8651 20.8689L71.9706 19.08ZM71.7306 11.8L70.9993 13.6615L71.0103 13.6658L71.0213 13.67L71.7306 11.8ZM57.4906 11.4L57.1939 9.42211L57.1865 9.42325L57.4906 11.4ZM51.8106 12.68L51.3256 14.6203L51.8708 14.7566L52.4072 14.589L51.8106 12.68ZM51.4906 12.6H49.4906V14.1616L51.0056 14.5403L51.4906 12.6ZM52.097 4.50585C54.3122 3.80102 56.6064 3.32152 58.9822 3.06878L58.5591 -0.908779C55.9215 -0.628187 53.3624 -0.0943565 50.8842 0.694147L52.097 4.50585ZM59.0187 3.06455C61.4862 2.75612 64.1492 2.59999 67.0106 2.59999V-1.40001C64.0054 -1.40001 61.1751 -1.23613 58.5226 -0.904556L59.0187 3.06455ZM67.0106 2.59999C71.4978 2.59999 74.8765 3.04763 77.2468 3.85354L78.5344 0.066452C75.5714 -0.940971 71.6967 -1.40001 67.0106 -1.40001V2.59999ZM77.2811 3.86485C79.6382 4.61913 81.0693 5.71616 81.869 7.01098L85.2722 4.90901C83.832 2.57718 81.4764 1.00754 78.5002 0.0551491L77.2811 3.86485ZM81.8915 7.0465C82.8034 8.45581 83.3306 10.3438 83.3306 12.84H87.3306C87.3306 9.78953 86.6845 7.09085 85.2498 4.8735L81.8915 7.0465ZM83.3306 12.84C83.3306 15.7682 82.6388 18.0985 81.3648 19.9436L84.6564 22.2164C86.4758 19.5815 87.3306 16.4185 87.3306 12.84H83.3306ZM81.3778 19.9251C80.273 21.487 78.2312 22.6558 74.7591 23.0959L75.2621 27.0641C79.3634 26.5442 82.6549 25.0463 84.6435 22.2349L81.3778 19.9251ZM73.0106 25.08V25.48H77.0106V25.08H73.0106ZM74.9027 27.4771C78.5891 27.6763 80.7326 28.6778 81.8776 30.0444L84.9437 27.4756C82.782 24.8955 79.3255 23.7103 75.1186 23.4829L74.9027 27.4771ZM81.8979 30.0683C83.2569 31.6396 83.9706 33.5869 83.9706 36.04H87.9706C87.9706 32.7331 86.9777 29.827 84.9234 27.4517L81.8979 30.0683ZM83.9706 36.04C83.9706 40.3509 82.5634 43.3321 79.9538 45.3328L82.3875 48.5072C86.1779 45.6012 87.9706 41.3291 87.9706 36.04H83.9706ZM79.9577 45.3298C77.3194 47.342 72.7751 48.6036 65.9248 48.7605L66.0164 52.7595C73.1395 52.5964 78.7285 51.298 82.3835 48.5102L79.9577 45.3298ZM65.9408 48.7602C62.4496 48.8123 59.4208 48.6289 56.8406 48.2242L56.2207 52.1758C59.0805 52.6244 62.345 52.8143 66.0005 52.7598L65.9408 48.7602ZM56.8406 48.2242C54.2125 47.8119 51.8424 47.2491 49.7231 46.5426L48.4582 50.3374C50.8189 51.1243 53.4087 51.7347 56.2207 52.1758L56.8406 48.2242ZM51.0906 48.44V38.44H47.0906V48.44H51.0906ZM49.0906 40.44H49.5706V36.44H49.0906V40.44ZM48.9525 40.3421C51.1913 41.0697 53.4612 41.6024 55.761 41.9389L56.3402 37.9811C54.2667 37.6776 52.2166 37.197 50.1888 36.5379L48.9525 40.3421ZM55.761 41.9389C58.0641 42.276 60.6436 42.44 63.4906 42.44V38.44C60.791 38.44 58.4105 38.284 56.3402 37.9811L55.761 41.9389ZM63.4906 42.44C67.2766 42.44 70.3578 42.0487 72.4417 41.0403L70.6995 37.4397C69.4768 38.0313 67.1713 38.44 63.4906 38.44V42.44ZM72.4417 41.0403C73.5705 40.4941 74.5083 39.6981 75.1485 38.6241C75.7836 37.5589 76.0506 36.3472 76.0506 35.08H72.0506C72.0506 35.7861 71.9044 36.2544 71.7127 36.5759C71.5263 36.8885 71.224 37.1859 70.6995 37.4397L72.4417 41.0403ZM76.0506 35.08C76.0506 32.7502 75.1743 30.6858 73.0251 29.6111L71.2362 33.1889C71.647 33.3942 72.0506 33.7832 72.0506 35.08H76.0506ZM73.1147 29.6589C72.1962 29.1397 71.0419 28.8318 69.7896 28.6425C68.5109 28.4492 66.9905 28.36 65.2506 28.36V32.36C66.8708 32.36 68.177 32.4442 69.1917 32.5975C70.2327 32.7549 70.8384 32.967 71.1465 33.1411L73.1147 29.6589ZM65.2506 28.36H58.8506V32.36H65.2506V28.36ZM60.8506 30.36V20.04H56.8506V30.36H60.8506ZM58.8506 22.04H64.2106V18.04H58.8506V22.04ZM64.2106 22.04C66.1782 22.04 67.8731 21.9584 69.2762 21.7849C70.647 21.6153 71.8793 21.3423 72.8361 20.883L71.1052 17.277C70.7287 17.4577 70.001 17.6647 68.7851 17.8151C67.6015 17.9616 66.0831 18.04 64.2106 18.04V22.04ZM72.8651 20.8689C73.8772 20.3628 74.7097 19.6185 75.2718 18.6241C75.8254 17.6445 76.0506 16.5401 76.0506 15.4H72.0506C72.0506 16.0199 71.9292 16.4088 71.7895 16.6559C71.6582 16.8882 71.4507 17.1039 71.0762 17.2911L72.8651 20.8689ZM76.0506 15.4C76.0506 14.2122 75.7962 13.0565 75.1518 12.0566C74.4981 11.0423 73.5471 10.35 72.4399 9.93L71.0213 13.67C71.4608 13.8367 71.6698 14.0377 71.7895 14.2234C71.9184 14.4235 72.0506 14.7745 72.0506 15.4H76.0506ZM72.4619 9.9385C70.5816 9.19978 67.5982 8.92 63.8106 8.92V12.92C67.5964 12.92 69.893 13.2269 70.9993 13.6615L72.4619 9.9385ZM63.8106 8.92C61.6277 8.92 59.4219 9.08794 57.1939 9.42212L57.7873 13.3779C59.8261 13.0721 61.8335 12.92 63.8106 12.92V8.92ZM57.1865 9.42325C55.0243 9.7559 53.0314 10.2031 51.2141 10.771L52.4072 14.589C54.0032 14.0902 55.797 13.6841 57.7947 13.3767L57.1865 9.42325ZM52.2957 10.7397L51.9757 10.6597L51.0056 14.5403L51.3256 14.6203L52.2957 10.7397ZM53.4906 12.6V2.6H49.4906V12.6H53.4906Z" fill="#0265DC" mask="url(#path-1-outside-1_6795_1067)"/>
</g>
</svg>
