<svg width="56" height="56" viewBox="0 0 56 56" fill="none" xmlns="http://www.w3.org/2000/svg">
<rect width="56" height="56" rx="6" fill="#0D0D15"/>
<path d="M45.6379 29.0675V35.0071C45.6379 35.0755 45.6366 35.144 45.6325 35.2124C45.6312 35.2259 45.6312 35.2406 45.6299 35.254C45.6272 35.2943 45.6245 35.3346 45.6205 35.3762C45.6164 35.4165 45.6124 35.4567 45.607 35.497C45.603 35.5359 45.5963 35.5748 45.5909 35.6124C45.5815 35.6702 45.5721 35.7265 45.5601 35.7842C45.5534 35.8205 45.5453 35.8554 45.5372 35.8916C45.5292 35.9225 45.5211 35.9547 45.5131 35.9869C45.5064 36.0165 45.4983 36.0446 45.4889 36.0742C45.4527 36.2044 45.4084 36.3332 45.3574 36.4594C45.3466 36.4863 45.3359 36.5144 45.3238 36.5413C45.293 36.6151 45.2594 36.6876 45.2232 36.7587C45.2057 36.795 45.1869 36.8299 45.1681 36.8648L45.1668 36.8634L38.4473 33.1238L27.9238 27.2661L35.8379 23.6232L45.4956 28.9896L45.6379 29.0675Z" fill="url(#paint0_linear_1_2790)"/>
<path d="M45.5194 17.9829L43.471 19.5615L41.6576 22.4125L24.416 12.8151L30.9677 8.21381L34.9274 10.5011H34.9288L42.1851 14.6903L43.6872 15.5574C44.612 16.0917 45.2643 16.9722 45.5194 17.9829Z" fill="url(#paint1_linear_1_2790)"/>
<path d="M34.9275 10.501L10 24.7815V18.9373C10 17.5426 10.7436 16.254 11.9503 15.5574L25.8685 7.52248C27.0752 6.82584 28.5624 6.82584 29.7705 7.52248L34.9275 10.501Z" fill="#0265DC"/>
<path d="M45.6376 18.9373V20.9655L13.4376 39.246L11.9503 38.387C10.7436 37.689 10 36.4017 10 35.0071V32.9829L42.1852 14.6903L43.6872 15.5574C44.894 16.2541 45.6376 17.5427 45.6376 18.9373Z" fill="#0265DC"/>
<path d="M45.6374 28.9064V35.007C45.6374 35.0755 45.636 35.144 45.632 35.2124C45.6307 35.2258 45.6307 35.2406 45.6293 35.254C45.6266 35.2943 45.624 35.3346 45.6199 35.3762C45.6159 35.4164 45.6119 35.4567 45.6065 35.497C45.6025 35.5359 45.5958 35.5748 45.5904 35.6124C45.581 35.6701 45.5716 35.7265 45.5595 35.7842C45.5528 35.8205 45.5448 35.8554 45.5367 35.8916C45.5287 35.9225 45.5206 35.9547 45.5125 35.9869C45.5058 36.0164 45.4978 36.0446 45.4884 36.0742C45.4521 36.2044 45.4079 36.3332 45.3568 36.4594C45.3461 36.4862 45.3354 36.5144 45.3233 36.5413C45.2924 36.6151 45.2589 36.6876 45.2226 36.7587C45.2052 36.795 45.1864 36.8299 45.1676 36.8648C45.1461 36.9037 45.1246 36.9426 45.1018 36.9802C45.0803 37.0191 45.0562 37.0567 45.0334 37.0943C44.985 37.1681 44.9354 37.2419 44.883 37.3131C44.8293 37.3856 44.7743 37.4554 44.7179 37.5225C44.6884 37.5574 44.6589 37.5909 44.6293 37.6232C44.5998 37.6567 44.5689 37.6889 44.538 37.7211C44.4763 37.7856 44.4119 37.8487 44.3448 37.9077C44.3193 37.9319 44.2924 37.9547 44.2656 37.9775C44.2495 37.9909 44.2334 38.0044 44.2172 38.0178C44.185 38.046 44.1515 38.0728 44.1166 38.0983C44.083 38.1252 44.0495 38.1507 44.0132 38.1748C43.9461 38.2245 43.8763 38.2715 43.8052 38.3158C43.7662 38.3399 43.7273 38.3641 43.687 38.3869L29.7703 46.4218C28.5622 47.1185 27.075 47.1185 25.8683 46.4218L20.7783 43.4836L38.4468 33.1238L45.4951 28.9896L45.6374 28.9064Z" fill="#0265DC"/>
<path d="M16.9987 12.6433V41.301L13.4376 39.246L11.9503 38.3869C10.7436 37.6889 10 36.4017 10 35.0071V18.9373C10 17.5426 10.7436 16.254 11.9503 15.5574L16.9987 12.6433Z" fill="#0265DC"/>
<defs>
<linearGradient id="paint0_linear_1_2790" x1="44.5641" y1="33.4433" x2="30.2688" y2="23.6446" gradientUnits="userSpaceOnUse">
<stop stop-color="#0265DC"/>
<stop offset="1" stop-color="#0265DC" stop-opacity="0"/>
</linearGradient>
<linearGradient id="paint1_linear_1_2790" x1="42.2147" y1="19.8863" x2="29.2617" y2="11.497" gradientUnits="userSpaceOnUse">
<stop stop-color="#0265DC"/>
<stop offset="1" stop-color="#0265DC" stop-opacity="0"/>
</linearGradient>
</defs>
</svg>
