<svg width="24" height="17" viewBox="0 0 24 17" fill="none" xmlns="http://www.w3.org/2000/svg">
<path d="M23.2523 2.92188C23.0312 1.75354 21.9776 0.90271 20.7549 0.637085C18.9253 0.265625 15.5391 0 11.8755 0C8.21396 0 4.77359 0.265625 2.94177 0.637085C1.72127 0.90271 0.665529 1.69959 0.444408 2.92188C0.22112 4.25 0 6.10938 0 8.5C0 10.8906 0.22112 12.75 0.498605 14.0781C0.721892 15.2465 1.77547 16.0973 2.99596 16.3629C4.93835 16.7344 8.26816 17 11.9318 17C15.5955 17 18.9253 16.7344 20.8677 16.3629C22.0882 16.0973 23.1417 15.3004 23.365 14.0781C23.5862 12.75 23.8636 10.8367 23.92 8.5C23.8073 6.10938 23.5298 4.25 23.2523 2.92188ZM8.87949 12.2188V4.78125L15.6497 8.5L8.87949 12.2188Z" fill="#F5F8FB"/>
</svg>
